# xmcd
# 
# Track frame offsets:
#     150
#     22877
#     46735
#     70032
#     92485
#     113410
#     133750
#     159457
#     184562
#     206695
#     227302
# 
# Disc length: 3248
# 
# Revision: 2
# Processed by: cddbd v1.5.2PL0 Copyright (c) Steve Scherf et al.
# Submitted via: fre:ac v1.0.17
# 
DISCID=790cae0b
DTITLE=小比類巻かほる - SILENT
DYEAR=1991
DGENRE=Pop
TTITLE0=MIRAGE MIRROR
TTITLE1=グロリア
TTITLE2=助手席のA級ライセンス
TTITLE3=雨のベローナ
TTITLE4=ハロウィンはCURIOSITY
TTITLE5=VELVET DREAM
TTITLE6=オリオンのように
TTITLE7=TIME GOES BY
TTITLE8=FORGET THE MEMORIES
TTITLE9=MY SUN-SHINE
TTITLE10=銀の指輪
EXTD=
EXTT0=
EXTT1=
EXTT2=
EXTT3=
EXTT4=
EXTT5=
EXTT6=
EXTT7=
EXTT8=
EXTT9=
EXTT10=
PLAYORDER=
